# xmcd
#
# Track frame offsets:
#	150
#	14724
#	26718
#	38700
#	49448
#	61571
#	84007
#	96786
#	108962
#	120768
#	132156
#	140827
#	154261
#	164828
#	175599
#	191401
#	204721
#	214080
#	223778
#	235983
#	252203
#	265451
#	279827
#	293337
#	303105
#	311161
#
# Disc length: 4276 seconds
#
# Revision: 0
# Processed by: cddbd v1.5.2PL0 Copyright (c) Steve Scherf et al.
# Submitted via: EasyCDDAExtractor 12.0.1.1
#
DISCID=7110b21a
DTITLE=Johnny Cash - Complete Recording Sessions [Cd 16] 1965-1966 Sessions
DYEAR=2005
DGENRE=Country
TTITLE0=Happy To Be With You
TTITLE1=For Lovin' Me
TTITLE2=One Too Many Mornings
TTITLE3=Ancient History
TTITLE4=Wabash Cannonball
TTITLE5=She Came From The Mountains
TTITLE6=The One On The Right
TTITLE7=You Comb Her Hair
TTITLE8=A Wound Time Can't Erase
TTITLE9=Is This My Destiny
TTITLE10=Guess Things Happen That Way
TTITLE11=Happiness Is You
TTITLE12=Cottin Pickin' Hands
TTITLE13=The Frozen Logger
TTITLE14=Concerning Your New Song
TTITLE15=The Bug That Crawled Around...
TTITLE16=Flushed From The Bathroom...
TTITLE17=Dirty Old Egg Suckking Hound
TTITLE18=Take Me Home
TTITLE19=The Song Of The Coward
TTITLE20=Please Don't Play Red River V.
TTITLE21=Foolish Questions
TTITLE22=The Singing Star's Queen
TTITLE23=Austin Prison
TTITLE24=Boa Constrictor
TTITLE25=Everybody Loves A Nut
EXTD=
EXTT0=
EXTT1=
EXTT2=
EXTT3=
EXTT4=
EXTT5=
EXTT6=
EXTT7=
EXTT8=
EXTT9=
EXTT10=
EXTT11=
EXTT12=
EXTT13=
EXTT14=
EXTT15=
EXTT16=
EXTT17=
EXTT18=
EXTT19=
EXTT20=
EXTT21=
EXTT22=
EXTT23=
EXTT24=
EXTT25=
PLAYORDER=
